<svg xmlns="http://www.w3.org/2000/svg" viewBox="0 0 193.2 80.27"><defs><style>.cls-1{fill:#fff;}</style></defs><g id="Capa_2" data-name="Capa 2"><g id="Capa_1-2" data-name="Capa 1"><path class="cls-1" d="M25.26,57.53h-8.1c-.36-2.56-1.72-4.28-4.37-4.28-1.85,0-3.11.91-3.11,2.8s1.44,3.19,6.58,4.41c6.84,1.62,9.63,5,9.63,9.82,0,6.21-5.94,9.36-12.2,9.36C5.81,79.64.5,76.49,0,69.51H8.11a5.08,5.08,0,0,0,5.35,4.19c2.26,0,4-1.17,4-2.88s-1.17-3-5-4c-7.07-1.75-11.21-4-11.21-10.17,0-6,5.58-9.37,11.75-9.37C21.16,47.31,24.59,51.77,25.26,57.53Z"/><path class="cls-1" d="M68,65V79h-8.1V66.76a31.31,31.31,0,0,0-.19-3.28c-.26-2.3-1.35-3.65-3.46-3.65-2.61,0-3.65,2.39-3.65,6.48V79H44.48V66.76c0-.76,0-2.07-.17-3.28-.28-2.3-1.36-3.65-3.47-3.65-2.61,0-3.65,2.39-3.65,6.48V79h-8.1V55h8.1v3.87l1.94-3.11a9.22,9.22,0,0,1,5.18-1.39c4.09,0,6.66,2,7.7,4.68l2.52-3.29a9.21,9.21,0,0,1,5.17-1.39c4.82,0,7.53,2.79,8.07,6.07A33.48,33.48,0,0,1,68,65Z"/><path class="cls-1" d="M86.13,75.5l-1,2.52a11,11,0,0,1-5.94,1.62c-4,0-7.7-2.48-7.7-7.11,0-5.14,4.86-8.29,13-8.29H86v-.36A13.29,13.29,0,0,0,86,62.13a2.65,2.65,0,0,0-2.88-2.3c-1.89,0-3,1.21-3.11,3.29l-7.65,0c0-5.63,5-8.82,11.12-8.82,7.61,0,10.22,3.37,10.58,7.74.09,1.22.14,2.61.14,4.1v6.75A41.48,41.48,0,0,0,94.6,79H86.67ZM86,70.41V68.83c-3.65-.27-6.26.68-6.26,3.07,0,1.44,1.13,2.25,2.75,2.25A3.54,3.54,0,0,0,86,70.41Z"/><path class="cls-1" d="M132,60.19v-5h-5.32V48.93h-8.1v6.22H115.4a23.84,23.84,0,0,0-2.66,0,6.4,6.4,0,0,0-4.56,2.56l-1.07,2.1V55H99V79h8.1V70.19c0-7.25,2.18-10,8.29-10h3.14v10c0,1.35,0,2.48.09,3.87.27,3.7,2.07,5.54,8.06,5.54a27.33,27.33,0,0,0,4.77-.4v-5c-3.83.18-4.59-.36-4.77-2.79,0-.63,0-1.53,0-2.34V60.19Z"/><path class="cls-1" d="M142.41,69.55,140.16,72v7.61h-3.87V46.54h3.87V67.8l11.12-12h4.95L145.11,67l11.26,12.61H151.1Z"/><path class="cls-1" d="M178.88,68.88H161.59c.36,6.3,3.33,8.42,6.84,8.42a6,6,0,0,0,6.17-5.36h4.05c-.94,5.77-5.49,8.33-10.4,8.33-6.21,0-10.85-4-10.85-12.47,0-7.75,4.82-12.65,11.35-12.65S179,60.05,179,67A16.72,16.72,0,0,1,178.88,68.88Zm-17.25-3h13.42c-.36-5-2.47-7.79-6.39-7.79S162.08,60.82,161.63,65.91Z"/><path class="cls-1" d="M188.74,72.66c0,.81,0,1.22,0,1.85.18,2.29,1.13,2.79,4.15,2.43v2.84a20.59,20.59,0,0,1-3.29.22c-3,0-4.5-1.21-4.73-4.19,0-.63,0-1.62,0-3V58.93h-3.2V56h3.2V50.42h3.87V56h4.46v3h-4.46Z"/><path class="cls-1" d="M96.6,0A39.78,39.78,0,0,0,56.82,39.78c0,1.27.06,2.53.18,3.76a39.78,39.78,0,0,1,79.2,0c.12-1.23.17-2.49.17-3.76A39.77,39.77,0,0,0,96.6,0Z"/></g></g></svg>